<svg width="24" height="24" viewBox="0 0 24 24" fill="none" xmlns="http://www.w3.org/2000/svg">
<path fill-rule="evenodd" clip-rule="evenodd" d="M3.99966 4.25C2.48088 4.25 1.24966 5.48122 1.24966 7V17C1.24966 18.5188 2.48088 19.75 3.99966 19.75H19.9997C21.5184 19.75 22.7497 18.5188 22.7497 17V7C22.7497 5.48122 21.5184 4.25 19.9997 4.25H3.99966ZM2.74966 7C2.74966 6.30964 3.30931 5.75 3.99966 5.75H19.9997C20.69 5.75 21.2497 6.30964 21.2497 7V9.5H2.74966V7ZM2.74966 11V17C2.74966 17.6904 3.30931 18.25 3.99966 18.25H19.9997C20.69 18.25 21.2497 17.6904 21.2497 17V11H2.74966Z" fill="#B3B6BE"/>
</svg>
