<svg width="22" height="16" viewBox="0 0 22 16" fill="none" xmlns="http://www.w3.org/2000/svg">
<g clip-path="url(#clip0_542_49)">
<g clip-path="url(#clip1_542_49)">
<rect width="22" height="16" rx="2" fill="#1A47B8"/>
<path d="M19.9048 0H2.09524C0.93807 0 0 0.955126 0 2.13333V13.8667C0 15.0449 0.93807 16 2.09524 16H19.9048C21.0619 16 22 15.0449 22 13.8667V2.13333C22 0.955126 21.0619 0 19.9048 0Z" fill="#1A47B8"/>
<path fill-rule="evenodd" clip-rule="evenodd" d="M11 2L11.2763 2.61976L11.9511 2.69098L11.447 3.14524L11.5878 3.80902L11 3.47L10.4122 3.80902L10.553 3.14524L10.049 2.69098L10.7237 2.61976L11 2ZM6.27627 7.61976L6.00001 7L5.72375 7.61976L5.04895 7.69098L5.55301 8.14524L5.41222 8.80902L6.00001 8.47L6.58779 8.80902L6.447 8.14524L6.95106 7.69098L6.27627 7.61976ZM16.2763 7.61976L16 7L15.7237 7.61976L15.049 7.69098L15.553 8.14524L15.4122 8.80902L16 8.47L16.5878 8.80902L16.447 8.14524L16.9511 7.69098L16.2763 7.61976ZM11.2763 12.6198L11 12L10.7237 12.6198L10.049 12.691L10.553 13.1452L10.4122 13.809L11 13.47L11.5878 13.809L11.447 13.1452L11.9511 12.691L11.2763 12.6198ZM7.50001 10.5L7.77627 11.1198L8.45106 11.191L7.947 11.6452L8.08779 12.309L7.50001 11.97L6.91222 12.309L7.05301 11.6452L6.54895 11.191L7.22375 11.1198L7.50001 10.5ZM7.77627 4.11976L7.50001 3.5L7.22375 4.11976L6.54895 4.19098L7.05301 4.64524L6.91222 5.30902L7.50001 4.97L8.08779 5.30902L7.947 4.64524L8.45106 4.19098L7.77627 4.11976ZM14.5 10.5L14.7763 11.1198L15.4511 11.191L14.947 11.6452L15.0878 12.309L14.5 11.97L13.9122 12.309L14.053 11.6452L13.549 11.191L14.2237 11.1198L14.5 10.5ZM14.7763 4.11976L14.5 3.5L14.2237 4.11976L13.549 4.19098L14.053 4.64524L13.9122 5.30902L14.5 4.97L15.0878 5.30902L14.947 4.64524L15.4511 4.19098L14.7763 4.11976Z" fill="#FFFF00"/>
</g>
</g>
<rect x="0.25" y="0.25" width="21.5" height="15.5" rx="1.75" stroke="#F0F1F3" stroke-width="0.5"/>
<defs>
<clipPath id="clip0_542_49">
<rect width="22" height="16" rx="2" fill="white"/>
</clipPath>
<clipPath id="clip1_542_49">
<rect width="22" height="16" rx="2" fill="white"/>
</clipPath>
</defs>
</svg>
