<svg width="41" height="40" viewBox="0 0 41 40" fill="none" xmlns="http://www.w3.org/2000/svg">
<rect x="0.5" width="40" height="40" rx="20" fill="#F6F7F9"/>
<g clip-path="url(#clip0_453_165)">
<path d="M15.416 16.2877C15.416 15.8735 15.0802 15.5377 14.666 15.5377C14.2517 15.5377 13.916 15.8735 13.916 16.2877L13.916 25.8336C13.916 25.9394 13.9378 26.04 13.9773 26.1312C14.0083 26.2029 14.0509 26.2707 14.1053 26.3318C14.1256 26.3546 14.1472 26.3762 14.1701 26.3963C14.227 26.4466 14.2897 26.4867 14.3558 26.5167C14.4503 26.5597 14.5553 26.5836 14.666 26.5836H24.2119C24.6261 26.5836 24.9619 26.2479 24.9619 25.8336C24.9619 25.4194 24.6261 25.0836 24.2119 25.0836H16.4766L26.8635 14.6967C27.1564 14.4038 27.1564 13.9289 26.8635 13.636C26.5707 13.3431 26.0958 13.3431 25.8029 13.636L15.416 24.023L15.416 16.2877Z" fill="#2B2C39"/>
</g>
<defs>
<clipPath id="clip0_453_165">
<rect width="24" height="24" fill="white" transform="translate(8.5 8)"/>
</clipPath>
</defs>
</svg>
