<svg width="41" height="40" viewBox="0 0 41 40" fill="none" xmlns="http://www.w3.org/2000/svg">
<rect x="0.5" width="40" height="40" rx="20" fill="#F6F7F9"/>
<path fill-rule="evenodd" clip-rule="evenodd" d="M12.5 12.25C10.9812 12.25 9.75 13.4812 9.75 15V25C9.75 26.5188 10.9812 27.75 12.5 27.75H28.5C30.0188 27.75 31.25 26.5188 31.25 25V15C31.25 13.4812 30.0188 12.25 28.5 12.25H12.5ZM11.25 15C11.25 14.3096 11.8096 13.75 12.5 13.75H28.5C29.1904 13.75 29.75 14.3096 29.75 15V17.5H11.25V15ZM11.25 19V25C11.25 25.6904 11.8096 26.25 12.5 26.25H28.5C29.1904 26.25 29.75 25.6904 29.75 25V19H11.25Z" fill="#2B2C39"/>
</svg>
